# xmcd
#
# Track frame offsets:
#	150
#	13756
#	27533
#	42033
#	55861
#	71381
#	85232
#	99102
#	113309
#	128244
#	142282
#	156415
#	170507
#	185276
#	199580
#	211154
#	225832
#	240286
#	253610
#	268353
#	283339
#
# Disc length: 3962 seconds
#
# Revision: 3
# Processed by: cddbd v1.5.1PL2 Copyright (c) Steve Scherf et al.
# Submitted via: audiograbber 1.83.01
#
DISCID=1f0f7815
DTITLE=Doris Day - Sentemental Journey CD2
DYEAR=2002
DGENRE=Blues
TTITLE0=Till The End Of Time
TTITLE1=He'll Have To Cross The Atlantic
TTITLE2=I'd Rather Be With You
TTITLE3=Aren't You Glad You're You?
TTITLE4=The Last Time I Saw You
TTITLE5=Come To Baby, Do!
TTITLE6=You Won't Be Satisfied (Until You Break My Heart)
TTITLE7=A Red Kiss On A Blue Letter
TTITLE8=Well Be Together Again
TTITLE9=Day By Day
TTITLE10=In The Moon Mist
TTITLE11=(Oh, Yes) There's Good Blues
TTITLE12=All Through The Day
TTITLE13=The Deevil, Devil, Divil
TTITLE14=I Got The Sun In The Morning
TTITLE15=The Whole World Is Singing My Song
TTITLE16=Sooner Or Later
TTITLE17=My Number One Dream Come True
TTITLE18=You Should Have Told Me
TTITLE19=It Could Happen To You
TTITLE20=The Christmas Song
EXTD=
EXTT0=
EXTT1=
EXTT2=
EXTT3=
EXTT4=
EXTT5=
EXTT6=
EXTT7=
EXTT8=
EXTT9=
EXTT10=
EXTT11=
EXTT12=
EXTT13=
EXTT14=
EXTT15=
EXTT16=
EXTT17=
EXTT18=
EXTT19=
EXTT20=
PLAYORDER=
